<svg width="26" height="26" viewBox="0 0 26 26" fill="none" xmlns="http://www.w3.org/2000/svg">
<rect width="26" height="26" rx="9" fill="#1EA7FF"/>
<path d="M9.952 18V8.2H13.886C14.9033 8.2 15.678 8.438 16.21 8.914C16.7513 9.38067 17.022 9.98267 17.022 10.72C17.022 11.336 16.854 11.8307 16.518 12.204C16.1913 12.568 15.79 12.8153 15.314 12.946C15.874 13.058 16.336 13.338 16.7 13.786C17.064 14.2247 17.246 14.738 17.246 15.326C17.246 16.1007 16.966 16.74 16.406 17.244C15.846 17.748 15.0527 18 14.026 18H9.952ZM11.744 12.316H13.62C14.124 12.316 14.5113 12.1993 14.782 11.966C15.0527 11.7327 15.188 11.4013 15.188 10.972C15.188 10.5613 15.0527 10.2393 14.782 10.006C14.5207 9.76333 14.124 9.642 13.592 9.642H11.744V12.316ZM11.744 16.544H13.746C14.278 16.544 14.6887 16.4227 14.978 16.18C15.2767 15.928 15.426 15.578 15.426 15.13C15.426 14.6727 15.272 14.3133 14.964 14.052C14.656 13.7907 14.2407 13.66 13.718 13.66H11.744V16.544Z" fill="white"/>
</svg>
