<svg width="17" height="17" viewBox="0 0 17 17" fill="none" xmlns="http://www.w3.org/2000/svg">
<path d="M8.47564 11.3665L5.18081 14.6613C4.7819 15.0463 4.24914 15.2615 3.69474 15.2615C3.14034 15.2615 2.60758 15.0463 2.20867 14.6613C2.01302 14.4665 1.85778 14.2349 1.75185 13.9798C1.64592 13.7248 1.5914 13.4514 1.5914 13.1753C1.5914 12.8991 1.64592 12.6257 1.75185 12.3707C1.85778 12.1157 2.01302 11.8841 2.20867 11.6892L5.5035 8.39436C5.6634 8.23446 5.75324 8.01758 5.75324 7.79144C5.75324 7.5653 5.6634 7.34842 5.5035 7.18852C5.3436 7.02861 5.12672 6.93878 4.90058 6.93878C4.67444 6.93878 4.45756 7.02861 4.29766 7.18852L1.00283 10.4918C0.339068 11.2143 -0.0199127 12.1653 0.000853207 13.1462C0.0216191 14.1271 0.420526 15.062 1.11427 15.7557C1.80801 16.4495 2.74294 16.8484 3.72382 16.8691C4.7047 16.8899 5.65568 16.5309 6.37816 15.8672L9.68148 12.5723C9.84139 12.4124 9.93122 12.1956 9.93122 11.9694C9.93122 11.7433 9.84139 11.5264 9.68148 11.3665C9.52158 11.2066 9.3047 11.1168 9.07856 11.1168C8.85242 11.1168 8.63555 11.2066 8.47564 11.3665ZM15.7616 1.10836C15.0473 0.398453 14.0811 0 13.074 0C12.0669 0 11.1007 0.398453 10.3863 1.10836L7.08298 4.4032C7.00381 4.48237 6.941 4.57637 6.89815 4.67982C6.8553 4.78327 6.83324 4.89415 6.83324 5.00612C6.83324 5.11809 6.8553 5.22897 6.89815 5.33242C6.941 5.43586 7.00381 5.52986 7.08298 5.60904C7.16216 5.68821 7.25615 5.75102 7.3596 5.79387C7.46305 5.83672 7.57393 5.85878 7.6859 5.85878C7.79787 5.85878 7.90875 5.83672 8.0122 5.79387C8.11565 5.75102 8.20965 5.68821 8.28882 5.60904L11.5837 2.31421C11.9826 1.92921 12.5153 1.71405 13.0697 1.71405C13.6241 1.71405 14.1569 1.92921 14.5558 2.31421C14.7514 2.50908 14.9067 2.74067 15.0126 2.99569C15.1185 3.25071 15.1731 3.52413 15.1731 3.80028C15.1731 4.07642 15.1185 4.34984 15.0126 4.60486C14.9067 4.85988 14.7514 5.09147 14.5558 5.28635L11.261 8.58118C11.1814 8.66012 11.1182 8.75404 11.0751 8.85752C11.032 8.96101 11.0098 9.072 11.0098 9.1841C11.0098 9.2962 11.032 9.4072 11.0751 9.51068C11.1182 9.61416 11.1814 9.70808 11.261 9.78702C11.3399 9.86661 11.4338 9.92979 11.5373 9.9729C11.6408 10.016 11.7518 10.0382 11.8639 10.0382C11.976 10.0382 12.087 10.016 12.1905 9.9729C12.2939 9.92979 12.3879 9.86661 12.4668 9.78702L15.7616 6.4837C16.4715 5.76935 16.87 4.80314 16.87 3.79603C16.87 2.78892 16.4715 1.82271 15.7616 1.10836ZM5.69032 11.1797C5.76967 11.2584 5.86377 11.3207 5.96723 11.3629C6.0707 11.4052 6.18148 11.4266 6.29324 11.4259C6.405 11.4266 6.51579 11.4052 6.61925 11.3629C6.72271 11.3207 6.81681 11.2584 6.89616 11.1797L11.0741 7.0017C11.234 6.84179 11.3239 6.62492 11.3239 6.39878C11.3239 6.17264 11.234 5.95576 11.0741 5.79586C10.9142 5.63595 10.6974 5.54612 10.4712 5.54612C10.2451 5.54612 10.0282 5.63595 9.8683 5.79586L5.69032 9.97384C5.61073 10.0528 5.54755 10.1467 5.50444 10.2502C5.46133 10.3537 5.43913 10.4647 5.43913 10.5768C5.43913 10.6889 5.46133 10.7999 5.50444 10.9033C5.54755 11.0068 5.61073 11.1007 5.69032 11.1797Z" fill="#505050"/>
</svg>
